<svg class="border shadow-md" viewBox="0 0 715.44 715.44" xmlns="http://www.w3.org/2000/svg" preserveAspectRatio="none" style="width: 715.44px; height: 715.44px;"><rect class="bg" id="bg" x="0" y="0" width="715.44" height="715.44" fill="#414141"></rect><g transform="rotate(170 357.72 357.72)"><path d="M -178.86 635.44 S -99.43 579.44
            0.00 635.44 19.86 623.44
            178.86 635.44 258.29 595.44
            357.72 635.44 437.15 612.44
            536.58 635.44 589.44 581.44
            715.44 635.44 782.30 576.44
            894.30 635.44 h 110 V 1315.44 H -178.86 Z" fill="#141414"></path><path d="M -178.86 105.00 S -119.00 62.00
            0.00 105.00 23.86 62.50
            178.86 105.00 258.29 62.50
            357.72 105.00 437.15 39.00
            536.58 105.00 616.01 62.50
            715.44 105.00 794.87 55.00
            894.30 105.00 h 110 V -600 H -178.86 Z" fill="#141414"></path></g></svg>