<svg width="185" height="188" viewBox="0 0 185 188" fill="none" xmlns="http://www.w3.org/2000/svg">
<g clip-path="url(#clip0_226_46)">
<path d="M92.2465 41.0156C34.5941 41.0156 11.5332 93.75 11.5332 93.75C11.5332 93.75 34.5941 146.484 92.2465 146.484C149.899 146.484 172.96 93.75 172.96 93.75C172.96 93.75 149.899 41.0156 92.2465 41.0156Z" stroke="white" stroke-width="12" stroke-linecap="round" stroke-linejoin="round"/>
<g clip-path="url(#clip1_226_46)">
<path d="M93.4989 119.186L118.125 94.1579C124.175 87.9781 125.057 77.8741 119.341 71.4162C117.908 69.7888 116.163 68.4755 114.213 67.5566C112.263 66.6376 110.15 66.1324 108.002 66.0716C105.853 66.0109 103.715 66.396 101.718 67.2034C99.7214 68.0107 97.9074 69.2234 96.3872 70.7673L91.766 75.4949L87.7832 71.4162C81.7027 65.2673 71.7611 64.3712 65.4069 70.1803C63.8056 71.6371 62.5134 73.4105 61.6093 75.392C60.7051 77.3735 60.208 79.5216 60.1482 81.705C60.0884 83.8884 60.4673 86.0613 61.2617 88.0908C62.0561 90.1204 63.2493 91.964 64.7685 93.509L90.033 119.186C90.4942 119.65 91.1169 119.911 91.766 119.911C92.415 119.911 93.0378 119.65 93.4989 119.186V119.186Z" stroke="white" stroke-width="12" stroke-linecap="round" stroke-linejoin="round"/>
</g>
</g>
<defs>
<clipPath id="clip0_226_46">
<rect width="184.488" height="187.5" fill="white" transform="translate(0.00268555)"/>
</clipPath>
<clipPath id="clip1_226_46">
<rect width="77.8307" height="79.1016" fill="white" transform="translate(52.8506 53.7109)"/>
</clipPath>
</defs>
</svg>
