<svg width="607" height="549" viewBox="0 0 607 549" fill="none" xmlns="http://www.w3.org/2000/svg">
<g clip-path="url(#clip0_103_278)">
<path d="M381.087 156.211L354.618 108.356L135.852 229.358L162.321 277.213" stroke="#EEEEEE" stroke-width="6" stroke-linecap="round" stroke-linejoin="round"/>
<path d="M209.966 363.352L428.732 242.35L473.729 323.704L254.963 444.705L209.966 363.352Z" stroke="#EEEEEE" stroke-width="6" stroke-linecap="round" stroke-linejoin="round"/>
<path d="M444.613 271.063L506.141 237.031L453.203 141.321C447.38 130.793 429.284 129.553 413.048 138.533L130.361 294.89C114.124 303.871 105.558 319.858 111.381 330.386L164.319 426.096L225.847 392.065" stroke="#EEEEEE" stroke-width="6" stroke-linecap="round" stroke-linejoin="round"/>
<path d="M198.274 326.072C190.722 330.249 182.231 329.349 179.307 324.063C176.383 318.777 180.135 311.106 187.686 306.93C195.237 302.753 203.729 303.652 206.653 308.938C209.576 314.224 205.825 321.895 198.274 326.072Z" fill="#EEEEEE"/>
</g>
<defs>
<clipPath id="clip0_103_278">
<rect width="500" height="350" fill="white" transform="matrix(-0.875065 0.484006 0.484006 0.875065 437.532 0)"/>
</clipPath>
</defs>
</svg>
