<svg width="186" height="190" viewBox="0 0 186 190" fill="none" xmlns="http://www.w3.org/2000/svg">
<g clip-path="url(#clip0_226_20)">
<path d="M92.9226 165.619C131.131 165.619 162.105 133.84 162.105 94.6393C162.105 55.4383 131.131 23.6597 92.9226 23.6597C54.714 23.6597 23.7397 55.4383 23.7397 94.6393C23.7397 133.84 54.714 165.619 92.9226 165.619Z" stroke="white" stroke-width="12" stroke-linecap="round" stroke-linejoin="round"/>
<path d="M66.9789 88.7244C71.755 88.7244 75.6268 84.7521 75.6268 79.8519C75.6268 74.9518 71.755 70.9795 66.9789 70.9795C62.2028 70.9795 58.3311 74.9518 58.3311 79.8519C58.3311 84.7521 62.2028 88.7244 66.9789 88.7244Z" fill="white"/>
<path d="M118.866 88.7244C123.642 88.7244 127.514 84.7521 127.514 79.8519C127.514 74.9518 123.642 70.9795 118.866 70.9795C114.09 70.9795 110.218 74.9518 110.218 79.8519C110.218 84.7521 114.09 88.7244 118.866 88.7244Z" fill="white"/>
<path d="M122.902 112.384C119.854 117.771 115.481 122.243 110.22 125.351C104.958 128.459 98.9937 130.095 92.9226 130.095C86.8515 130.095 80.8869 128.459 75.6256 125.351C70.3644 122.243 65.9911 117.771 62.9434 112.384" stroke="white" stroke-width="12" stroke-linecap="round" stroke-linejoin="round"/>
</g>
<defs>
<clipPath id="clip0_226_20">
<rect width="184.488" height="189.279" fill="white" transform="translate(0.678711)"/>
</clipPath>
</defs>
</svg>
