<svg width="50" height="50" viewBox="0 0 50 50" fill="none" xmlns="http://www.w3.org/2000/svg">
<path d="M25 0.806641V6.77349M41.9707 7.79714L37.728 12.0164M49 24.674H43M41.9707 41.551L37.728 37.3317M25 42.5746V48.5414M12.272 37.3317L8.02933 41.551M7 24.674H1M12.272 12.0164L8.02933 7.79714M35 24.674C35 27.3116 33.9464 29.841 32.0711 31.706C30.1957 33.571 27.6522 34.6188 25 34.6188C22.3478 34.6188 19.8043 33.571 17.9289 31.706C16.0536 29.841 15 27.3116 15 24.674C15 22.0365 16.0536 19.507 17.9289 17.642C19.8043 15.777 22.3478 14.7293 25 14.7293C27.6522 14.7293 30.1957 15.777 32.0711 17.642C33.9464 19.507 35 22.0365 35 24.674V24.674Z" stroke="white" stroke-width="1.5" stroke-linecap="round" stroke-linejoin="round"/>
</svg>
