<svg width="185" height="193" viewBox="0 0 185 193" fill="none" xmlns="http://www.w3.org/2000/svg">
<g clip-path="url(#clip0_226_28)">
<path d="M92.2465 42.2188C34.5941 42.2188 11.5332 96.5 11.5332 96.5C11.5332 96.5 34.5941 150.781 92.2465 150.781C149.899 150.781 172.96 96.5 172.96 96.5C172.96 96.5 149.899 42.2188 92.2465 42.2188Z" stroke="black" stroke-width="12" stroke-linecap="round" stroke-linejoin="round"/>
<g clip-path="url(#clip1_226_28)">
<path d="M93.4994 122.682L118.126 96.9197C124.176 90.5586 125.057 80.1583 119.342 73.5109C117.908 71.8358 116.163 70.4839 114.214 69.5381C112.264 68.5922 110.15 68.0721 108.002 68.0096C105.854 67.9471 103.716 68.3434 101.719 69.1745C99.7219 70.0055 97.9079 71.2538 96.3877 72.843L91.7665 77.7092L87.7837 73.5109C81.7032 67.1816 71.7615 66.2593 65.4074 72.2387C63.8061 73.7383 62.5139 75.5637 61.6098 77.6033C60.7056 79.643 60.2084 81.8541 60.1487 84.1015C60.0889 86.349 60.4678 88.5856 61.2622 90.6746C62.0566 92.7637 63.2498 94.6614 64.7689 96.2518L90.0335 122.682C90.4946 123.16 91.1174 123.428 91.7665 123.428C92.4155 123.428 93.0383 123.16 93.4994 122.682V122.682Z" stroke="black" stroke-width="12" stroke-linecap="round" stroke-linejoin="round"/>
</g>
</g>
<defs>
<clipPath id="clip0_226_28">
<rect width="184.488" height="193" fill="white" transform="translate(0.00292969)"/>
</clipPath>
<clipPath id="clip1_226_28">
<rect width="77.8307" height="81.4219" fill="white" transform="translate(52.8511 55.2864)"/>
</clipPath>
</defs>
</svg>
