<svg width="188" height="193" viewBox="0 0 188 193" fill="none" xmlns="http://www.w3.org/2000/svg">
<g clip-path="url(#clip0_226_91)">
<path d="M23.6086 78.2588H58.8041V156.518H23.6086C22.0529 156.518 20.5608 155.883 19.4608 154.754C18.3607 153.625 17.7427 152.094 17.7427 150.498V84.2787C17.7427 82.6821 18.3607 81.1509 19.4608 80.022C20.5608 78.893 22.0529 78.2588 23.6086 78.2588V78.2588Z" stroke="black" stroke-width="12" stroke-linecap="round" stroke-linejoin="round"/>
<path d="M58.8042 78.2589L88.1338 18.0598C94.3568 18.0598 100.325 20.5968 104.725 25.1126C109.125 29.6284 111.597 35.7531 111.597 42.1394V60.1992H156.985C158.649 60.1949 160.294 60.5561 161.81 61.2584C163.326 61.9607 164.678 62.9878 165.776 64.2708C166.873 65.5538 167.69 67.063 168.172 68.6969C168.654 70.3309 168.79 72.0517 168.57 73.7439L159.771 145.983C159.415 148.883 158.044 151.551 155.912 153.489C153.78 155.428 151.034 156.504 148.186 156.518H58.8042" stroke="black" stroke-width="12" stroke-linecap="round" stroke-linejoin="round"/>
</g>
<defs>
<clipPath id="clip0_226_91">
<rect width="187.71" height="192.637" fill="white" transform="translate(0.14502)"/>
</clipPath>
</defs>
</svg>
