<svg width="486" height="458" viewBox="0 0 486 458" fill="none" xmlns="http://www.w3.org/2000/svg">
<g clip-path="url(#clip0_103_209)">
<path d="M171.916 145.5C191.446 159.727 215.208 160.375 224.989 146.948C234.77 133.521 226.866 111.104 207.336 96.8767C187.806 82.6498 164.045 82.0013 154.264 95.4282C144.483 108.855 152.386 131.273 171.916 145.5Z" stroke="black" stroke-width="6" stroke-linecap="round" stroke-linejoin="round"/>
<path d="M106.136 235.8C125.666 250.027 149.427 250.675 159.208 237.248C168.989 223.822 161.086 201.404 141.556 187.177C122.026 172.95 98.2648 172.302 88.4839 185.729C78.7029 199.155 86.6061 221.573 106.136 235.8Z" stroke="black" stroke-width="6" stroke-linecap="round" stroke-linejoin="round"/>
<path d="M252.719 236.258L163.014 219.022" stroke="black" stroke-width="6" stroke-linecap="round" stroke-linejoin="round"/>
<path d="M415.516 267.533L300.731 245.45" stroke="black" stroke-width="6" stroke-linecap="round" stroke-linejoin="round"/>
<path d="M332.406 381.624L208.807 156.159" stroke="black" stroke-width="6" stroke-linecap="round" stroke-linejoin="round"/>
</g>
<defs>
<clipPath id="clip0_103_209">
<rect width="400" height="275" fill="white" transform="translate(161.92) rotate(36.0719)"/>
</clipPath>
</defs>
</svg>
