<svg width="185" height="190" viewBox="0 0 185 190" fill="none" xmlns="http://www.w3.org/2000/svg">
<g clip-path="url(#clip0_226_12)">
<path d="M92.4293 165.619C130.511 165.619 161.381 133.84 161.381 94.6395C161.381 55.4386 130.511 23.6599 92.4293 23.6599C54.348 23.6599 23.4771 55.4386 23.4771 94.6395C23.4771 133.84 54.348 165.619 92.4293 165.619Z" stroke="black" stroke-width="12" stroke-linecap="round" stroke-linejoin="round"/>
<path d="M66.5722 88.7244C71.3323 88.7244 75.1912 84.7521 75.1912 79.8519C75.1912 74.9518 71.3323 70.9795 66.5722 70.9795C61.812 70.9795 57.9531 74.9518 57.9531 79.8519C57.9531 84.7521 61.812 88.7244 66.5722 88.7244Z" fill="black"/>
<path d="M118.287 88.7244C123.047 88.7244 126.906 84.7521 126.906 79.8519C126.906 74.9518 123.047 70.9795 118.287 70.9795C113.526 70.9795 109.667 74.9518 109.667 79.8519C109.667 84.7521 113.526 88.7244 118.287 88.7244Z" fill="black"/>
<path d="M122.309 112.384C119.271 117.771 114.913 122.243 109.669 125.351C104.425 128.459 98.4804 130.095 92.4296 130.095C86.3787 130.095 80.434 128.459 75.1903 125.351C69.9466 122.243 65.5879 117.771 62.5503 112.384" stroke="black" stroke-width="12" stroke-linecap="round" stroke-linejoin="round"/>
</g>
<defs>
<clipPath id="clip0_226_12">
<rect width="183.873" height="189.279" fill="white" transform="translate(0.493164)"/>
</clipPath>
</defs>
</svg>
